# xmcd
#
# Track frame offsets:
#	150
#	17301
#	35073
#	50107
#	72811
#	94284
#	106663
#	125407
#	142260
#	164201
#	194161
#	212875
#	231048
#
# Disc length: 3298 seconds
# Revision: 0
# Processed by: cddbd v1.5.2PL0 Copyright (c) Steve Scherf et al.
# Submitted via: dBpowerAMP V12.0
#
DISCID=c70ce00d
DTITLE=Eddy Boyle - Tin Sanwich Stomp
DYEAR=2014
DGENRE=Blues Harmonica
TTITLE0=Just Cant Dance 
TTITLE1=Bump With Me Baby 
TTITLE2=Tin Sandwich Stomp 
TTITLE3=Just Dont Know 
TTITLE4=Hot Barmaid 
TTITLE5=Mary Lee 
TTITLE6=Mighty Long Time 
TTITLE7=Boogie With A Steady Roll 
TTITLE8=405 Train 
TTITLE9=Blues For Pete 
TTITLE10=Strugglers Blues 
TTITLE11=Moustache Man 
TTITLE12=Tin Sandwich Extra Helping  
EXTD=
EXTT0=
EXTT1=
EXTT2=
EXTT3=
EXTT4=
EXTT5=
EXTT6=
EXTT7=
EXTT8=
EXTT9=
EXTT10=
EXTT11=
EXTT12=
PLAYORDER=
